<svg xmlns="http://www.w3.org/2000/svg" version="1.0" viewBox="385 593.01 725.95 281.39"><defs><clipPath id="a"><path d="M407 811h82v63.262h-82Zm0 0"/></clipPath><clipPath id="b"><path d="M384.996 789.512H1110V805H384.996Zm0 0"/></clipPath><clipPath id="c"><path d="M434 811h84v63.262h-84Zm0 0"/></clipPath><clipPath id="d"><path d="M463 811h85v63.262h-85Zm0 0"/></clipPath><clipPath id="e"><path d="M493 811h84v63.262h-84Zm0 0"/></clipPath><clipPath id="f"><path d="M522 811h588.996v63.262H522Zm0 0"/></clipPath></defs><path d="m498.529 629.856-16.75 95.375q-4.002 22.16-18.562 34.125-14.566 11.97-35.719 11.968-19.16 0-30.234-9.578c-7.387-6.382-11.079-15.562-11.079-27.532q-.001-6.186 1-11.172h33.922c-.399 2.125-.594 4.055-.594 5.782 0 3.992.992 6.984 2.984 8.984q3 2.986 8.39 2.984 6.189 0 10.266-3.89c2.727-2.594 4.563-6.485 5.5-11.672l16.75-95.375Zm118.734 115.328h-52.281l-12.766 24.75h-35.718l75.422-140.078h39.515l25.938 140.078h-36.111Zm-3.984-25.937-8.188-51.875-26.734 51.875Zm139.493 52.077c-15.168 0-27.512-3.288-37.031-9.874q-14.267-9.873-14.266-28.032-.002-1.793.406-5.39h35.516q-.597 7.58 3.594 11.968c2.789 2.93 7.047 4.391 12.765 4.391q7.794 0 12.282-3.39c2.988-2.258 4.484-5.454 4.484-9.579q-.002-6.375-5.687-10.359-5.69-3.996-17.657-9c-7.718-3.187-14.008-6.207-18.86-9.062q-7.281-4.296-12.671-11.673-5.39-7.39-5.39-18.562-.188-13.781 6.796-23.953c4.657-6.781 11.102-11.969 19.344-15.562 8.25-3.594 17.695-5.391 28.344-5.391q14.356 0 25.531 4.5c7.457 2.992 13.25 7.312 17.375 12.969q6.188 8.47 6.188 20.046-.001 3.001-.204 4.391h-36.328q.201-.797.203-2.39 0-5.591-3.89-9.079-3.892-3.499-10.672-3.5-7.189.001-11.688 3.5c-2.992 2.325-4.484 5.48-4.484 9.47q-.001 5.986 5.594 10.077 5.59 4.094 17.36 9.485 11.777 5.39 19.25 9.984c4.987 3.055 9.28 7.14 12.874 12.266q5.39 7.675 5.39 18.859 0 12.362-6.593 22.14c-4.387 6.524-10.703 11.61-18.953 15.266q-12.363 5.485-28.922 5.485m159.436-.001q-17.768.002-31.235-7.374-13.47-7.39-20.859-20.75-7.376-13.372-7.375-30.736c0-16.363 3.523-30.96 10.578-43.797q10.575-19.263 29.438-30.03 18.855-10.782 42.797-10.782c11.976 0 22.488 2.43 31.53 7.281q13.56 7.284 20.938 20.563 7.39 13.265 7.39 30.421 0 24.55-10.577 44-10.565 19.455-29.531 30.329-18.955 10.875-43.094 10.875m5.187-31.515q13.17.002 23.14-6.781c6.657-4.532 11.813-10.617 15.47-18.266q5.484-11.484 5.484-24.844-.002-14.373-7.984-22.546-7.97-8.188-22.344-8.188-13.172 0-23.25 6.797-10.078 6.784-15.563 18.062-5.484 11.271-5.484 24.829-.001 14.377 7.984 22.656 7.98 8.283 22.547 8.281m148.069 4.188h44.704l-4.594 25.937h-78.828l24.75-140.078h34.125Zm0 0" fill="#d91313"/><g clip-path="url(#a)"><path fill="#424243" d="m426.441 811.922 62.48 62.48h-19.14l-62.48-62.48Zm0 0"/></g><g clip-path="url(#b)"><path fill="#a6a7ab" d="m1109.723 803.063-709.961 1.32-14.766-14.766Zm0 0"/></g><g clip-path="url(#c)"><path fill="#424243" d="m455.316 811.922 62.473 62.48h-20.406l-62.48-62.48Zm0 0"/></g><g clip-path="url(#d)"><path fill="#424243" d="m484.648 811.922 62.48 62.48H526.25l-62.473-62.48Zm0 0"/></g><g clip-path="url(#e)"><path fill="#424243" d="m513.676 811.922 62.476 62.48H555.59l-62.48-62.48Zm0 0"/></g><g clip-path="url(#f)"><path fill="#d91313" d="m665.395 841.02 33.382 33.382H584.613l-62.476-62.48h588.804Zm0 0"/></g><path d="m688.881 616.43 4.781-22.469h10.016q3.074.001 4.984 1.766 1.922 1.769 1.922 4.594a7.1 7.1 0 0 1-.64 3 7.5 7.5 0 0 1-1.766 2.422 8.3 8.3 0 0 1-2.672 1.624 8.9 8.9 0 0 1-3.266.594h-7l-1.797 8.469Zm14.031-18.453h-5.547l-1.297 6.125h6.078q1.623 0 2.72-.953 1.091-.967 1.093-2.438c0-.844-.281-1.508-.844-2q-.832-.733-2.203-.734m18.449 18.641q-2.595 0-4.14-1.266-1.549-1.265-1.549-3.39 0-2.53 1.89-4.016 1.906-1.5 5.142-1.5 1.185 0 2.359.234 1.171.223 2.203.61l.188-.844c.238-1.133.066-1.985-.516-2.547-.574-.57-1.531-.86-2.875-.86q-.91.001-2.047.266-1.142.253-2.672.828l-1.062-3.297c1.218-.469 2.39-.82 3.515-1.062a15.4 15.4 0 0 1 3.188-.36q3.827 0 5.61 1.875c1.187 1.243 1.55 2.938 1.093 5.094l-2.109 10.047h-4.233l.219-1.031a9.4 9.4 0 0 1-2.063.922 7.7 7.7 0 0 1-2.14.297m-1.61-5.032q0 .891.813 1.407.826.515 2.281.515c.594 0 1.164-.07 1.719-.219a5.8 5.8 0 0 0 1.578-.703l.547-2.515a9 9 0 0 0-1.75-.532 9.3 9.3 0 0 0-1.906-.203q-1.517 0-2.407.61-.877.61-.875 1.64m28.217 1.375q1.014.002 1.969-.406.95-.421 1.875-1.266l2.219 2.891a10.4 10.4 0 0 1-3.094 1.953 9.3 9.3 0 0 1-3.453.657q-1.705-.002-3.157-.594a7.6 7.6 0 0 1-2.5-1.641 7.8 7.8 0 0 1-1.672-2.484q-.61-1.453-.61-3.157 0-1.95.72-3.703c.487-1.164 1.148-2.172 1.984-3.015a9.4 9.4 0 0 1 2.953-2.016 8.7 8.7 0 0 1 3.593-.766 8.85 8.85 0 0 1 3.938.907q1.84.891 2.937 2.468l-2.983 2.704q-.752-1.123-1.75-1.672-.984-.547-2.203-.547-1.003.002-1.906.437a4.8 4.8 0 0 0-1.547 1.156 5.5 5.5 0 0 0-1.047 1.72 5.9 5.9 0 0 0-.375 2.109q-.002 1.862 1.156 3.062c.77.805 1.754 1.203 2.953 1.203m13.151 3.469 4.78-22.469 4.485-.953-2.937 13.922 8.234-7.219h5.328l-9.812 8.344 6.672 8.375h-5.235l-5.64-7.406-1.579 7.406Zm38.21-1.734q-1.536 1.094-3.047 1.593c-1 .332-2.102.5-3.297.5q-1.829-.001-3.406-.593c-1.055-.396-1.953-.946-2.703-1.657a7.5 7.5 0 0 1-1.736-2.529q-.625-1.487-.624-3.222 0-1.886.719-3.609a9.6 9.6 0 0 1 1.938-2.984 9.1 9.1 0 0 1 2.875-2 8.4 8.4 0 0 1 3.515-.75q1.624 0 3.031.609a7.2 7.2 0 0 1 2.422 1.672q.996 1.064 1.547 2.562c.375.993.563 2.063.563 3.22q-.001.36-.032.765-.033.393-.125 1.25h-12.187q.28 1.612 1.516 2.61 1.23.983 3 .984 1.06.002 1.984-.313a5.3 5.3 0 0 0 1.64-.906Zm-6-11.578q-1.44 0-2.594.921-1.158.91-1.672 2.375h8.031q-.298-1.466-1.312-2.375-1.001-.92-2.453-.921m14.478 13.312 3.564-16.719h4.297l-.36 1.64a6.7 6.7 0 0 1 2.063-1.468q1.123-.499 2.375-.5.64.001 1.203.125.56.111.875.328l-.797 3.86c-.21-.157-.559-.29-1.047-.407a5.8 5.8 0 0 0-1.328-.171q-1.19.002-2.281.578-1.095.578-1.89 1.656l-2.347 11.078Zm18.834-2.5 2.47-2.797q1.342 1.161 2.702 1.734a7.1 7.1 0 0 0 2.782.579q1.325 0 2.14-.516.811-.516.813-1.312 0-.545-.469-.907-.457-.375-1.36-.61l-3.076-.671q-2.052-.45-3.142-1.61-1.094-1.17-1.094-2.905 0-2.513 1.797-3.984c1.195-.988 2.813-1.484 4.844-1.484q2.027.002 3.89.672a10.5 10.5 0 0 1 3.329 1.906l-2.407 2.656q-1.282-.95-2.578-1.453-1.299-.499-2.515-.5-1.16 0-1.844.453-.673.44-.672 1.219c0 .406.148.734.453.984q.451.363 1.547.578l3.047.688q2.109.438 3.234 1.61t1.125 2.843c0 .812-.183 1.57-.547 2.266a5.6 5.6 0 0 1-1.5 1.796c-.625.5-1.37.899-2.234 1.188a8.8 8.8 0 0 1-2.812.437q-2.316-.003-4.438-.766-2.111-.78-3.484-2.094m0 0" fill="#424243"/><g transform="translate(848.623 616.43)" fill="#424243"/><path d="M866.851 616.618q-2.595 0-4.14-1.266-1.549-1.265-1.549-3.39 0-2.53 1.89-4.016 1.906-1.5 5.142-1.5c.789 0 1.578.078 2.359.234q1.171.223 2.203.61l.188-.844c.238-1.133.066-1.985-.516-2.547-.574-.57-1.531-.86-2.875-.86q-.91.001-2.047.266-1.142.253-2.672.828l-1.062-3.297c1.218-.469 2.39-.82 3.515-1.062a15.4 15.4 0 0 1 3.188-.36q3.827 0 5.61 1.875c1.187 1.243 1.55 2.938 1.093 5.094l-2.109 10.047h-4.233l.219-1.031a9.4 9.4 0 0 1-2.063.922 7.7 7.7 0 0 1-2.14.297m-1.61-5.032q0 .891.813 1.407.826.515 2.281.515c.594 0 1.164-.07 1.719-.219a5.8 5.8 0 0 0 1.578-.703l.547-2.515a9 9 0 0 0-1.75-.532 9.3 9.3 0 0 0-1.906-.203q-1.517 0-2.407.61-.877.61-.875 1.64m18.874 4.844 3.53-16.719h4.298l-.25 1.188a7.77 7.77 0 0 1 4.547-1.453c.988 0 1.867.18 2.64.53q1.155.533 1.86 1.47.701.924.953 2.218.264 1.283-.063 2.782l-2.11 9.984h-4.327l2.047-9.562q.327-1.639-.47-2.657-.784-1.03-2.359-1.031c-.656 0-1.293.133-1.906.39a4.5 4.5 0 0 0-1.625 1.141l-2.469 11.719Zm36.67 0 .203-.828a9 9 0 0 1-1.906.781 7.8 7.8 0 0 1-2.016.267q-1.565-.003-2.936-.595a7.4 7.4 0 0 1-2.36-1.61 7.7 7.7 0 0 1-1.562-2.452 8.1 8.1 0 0 1-.578-3.079c0-1.3.242-2.523.734-3.671a9.7 9.7 0 0 1 1.985-3 9.2 9.2 0 0 1 2.953-2.016 8.9 8.9 0 0 1 3.625-.75q1.482 0 2.765.453a7.6 7.6 0 0 1 2.281 1.281l1.532-7.25 4.531-.953-4.97 23.422Zm-6.922-7.89q-.002 1.892 1.25 3.14 1.247 1.252 3.11 1.25.997 0 1.89-.328a5.8 5.8 0 0 0 1.64-.953l1.407-6.64c-.45-.54-1.031-.97-1.75-1.282a5.6 5.6 0 0 0-2.312-.485q-2.19 0-3.72 1.547-1.516 1.536-1.515 3.75m0 0" fill="#424243"/><g transform="translate(934.332 616.43)" fill="#424243"/><path d="m959.106 614.82-4.486-14.92-3.499 16.53h-4.311l4.78-22.469h5.719l3.469 12.11 8.593-12.11h5.969l-4.781 22.469h-4.203l3.468-16.469Zm21.985-6.124a8.95 8.95 0 0 1 .734-3.594 9.5 9.5 0 0 1 2-2.969 9.4 9.4 0 0 1 2.985-2 8.9 8.9 0 0 1 3.609-.75q1.733 0 3.25.61a7.8 7.8 0 0 1 2.625 1.687 7.9 7.9 0 0 1 1.719 2.563q.623 1.471.625 3.171 0 1.894-.75 3.594a9.6 9.6 0 0 1-2.032 2.969 9.9 9.9 0 0 1-2.968 2.031q-1.689.75-3.594.75a8.7 8.7 0 0 1-3.25-.61q-1.536-.62-2.625-1.687a7.9 7.9 0 0 1-1.703-2.561 8.2 8.2 0 0 1-.625-3.203m8.406 4.233q.984.002 1.875-.406a5.1 5.1 0 0 0 1.578-1.14 5.2 5.2 0 0 0 1.063-1.704 5.6 5.6 0 0 0 .39-2.078q-.002-1.887-1.187-3.14-1.189-1.25-3.016-1.25-1.003 0-1.906.421a4.7 4.7 0 0 0-1.547 1.14 5.5 5.5 0 0 0-1.047 1.688 5.6 5.6 0 0 0-.375 2.047q0 1.923 1.188 3.172 1.185 1.252 2.984 1.25m20.085 3.5-3.5-16.719h4.593l2.079 11.14 6.843-11.14h4.719l-10.594 16.719Zm34.423-1.734q-1.536 1.094-3.047 1.593c-1 .332-2.102.5-3.297.5q-1.829-.001-3.406-.593c-1.055-.396-1.953-.946-2.703-1.657a7.5 7.5 0 0 1-1.736-2.529q-.625-1.487-.624-3.222 0-1.886.719-3.609a9.6 9.6 0 0 1 1.938-2.984 9.1 9.1 0 0 1 2.875-2 8.4 8.4 0 0 1 3.515-.75q1.624 0 3.031.609a7.2 7.2 0 0 1 2.422 1.672q.996 1.064 1.547 2.562c.375.993.563 2.063.563 3.22q-.001.36-.032.765-.033.393-.125 1.25h-12.187q.28 1.612 1.516 2.61 1.23.983 3 .984 1.06.002 1.984-.313a5.3 5.3 0 0 0 1.64-.906Zm-6-11.578q-1.44 0-2.594.921-1.158.91-1.672 2.375h8.031q-.298-1.466-1.312-2.375-1.001-.92-2.453-.921m14.478 13.312 3.564-16.719h4.297l-.36 1.64a6.7 6.7 0 0 1 2.063-1.468q1.123-.499 2.375-.5.64.001 1.203.125c.375.074.664.184.875.328l-.797 3.86c-.21-.157-.559-.29-1.047-.407a5.8 5.8 0 0 0-1.328-.171q-1.19.002-2.281.578-1.095.578-1.89 1.656l-2.347 11.078Zm18.834-2.5 2.47-2.797q1.342 1.161 2.702 1.734a7.1 7.1 0 0 0 2.782.579q1.325 0 2.14-.516.811-.516.813-1.312 0-.545-.469-.907-.457-.375-1.36-.61l-3.076-.671q-2.052-.45-3.142-1.61-1.094-1.17-1.094-2.905 0-2.513 1.797-3.984c1.195-.988 2.813-1.484 4.844-1.484q2.027.002 3.89.672a10.5 10.5 0 0 1 3.329 1.906l-2.407 2.656q-1.282-.95-2.578-1.453-1.299-.499-2.515-.5-1.16 0-1.844.453-.673.44-.672 1.219c0 .406.148.734.453.984q.451.363 1.547.578l3.047.688q2.109.438 3.234 1.61t1.125 2.843c0 .812-.183 1.57-.547 2.266a5.6 5.6 0 0 1-1.5 1.796c-.625.5-1.37.899-2.234 1.188a8.8 8.8 0 0 1-2.812.437q-2.316-.003-4.438-.766-2.111-.78-3.484-2.094m0 0" fill="#424243"/></svg>